<svg xmlns="http://www.w3.org/2000/svg" width="24" height="24" fill="none">
    <path fill="#11083e"
        d="M15.008 4.84c.596-.723 1.015-1.71 1.015-2.705 0-.137-.01-.274-.029-.381-.976.039-2.148.644-2.842 1.465-.556.625-1.064 1.62-1.064 2.617 0 .156.03.303.039.351.058.01.156.03.264.03.869 0 1.963-.586 2.617-1.377m.683 1.582c-1.455 0-2.646.889-3.408.889-.81 0-1.865-.83-3.135-.83-2.412 0-4.853 1.992-4.853 5.742 0 2.343.898 4.814 2.021 6.406.957 1.348 1.797 2.451 3.008 2.451 1.192 0 1.719-.79 3.203-.79 1.504 0 1.846.77 3.164.77 1.309 0 2.178-1.2 3.008-2.382.918-1.358 1.309-2.676 1.319-2.744-.079-.02-2.579-1.045-2.579-3.907 0-2.48 1.963-3.593 2.08-3.681-1.298-1.866-3.28-1.924-3.828-1.924"></path>
</svg>