<svg xmlns="http://www.w3.org/2000/svg" width="19" height="18" fill="none">
    <g fill-rule="evenodd" clip-rule="evenodd">
        <path fill="#4285F4"
            d="M18.14 9.205q-.002-.958-.164-1.841H9.5v3.481h4.844a4.14 4.14 0 0 1-1.796 2.716v2.258h2.908c1.702-1.566 2.684-3.874 2.684-6.614"></path>
        <path fill="#34A853"
            d="M9.5 18c2.43 0 4.467-.806 5.956-2.18l-2.908-2.259c-.806.54-1.837.86-3.048.86-2.344 0-4.328-1.584-5.036-3.711H1.457v2.332A9 9 0 0 0 9.5 18"></path>
        <path fill="#FBBC05"
            d="M4.464 10.71A5.4 5.4 0 0 1 4.182 9c0-.593.102-1.17.282-1.71V4.958H1.457A9 9 0 0 0 .5 9c0 1.452.348 2.827.957 4.042z"></path>
        <path fill="#EA4335"
            d="M9.5 3.58c1.321 0 2.508.454 3.44 1.345l2.582-2.58C13.963.891 11.926 0 9.5 0a9 9 0 0 0-8.043 4.958L4.464 7.29C5.172 5.163 7.156 3.58 9.5 3.58"></path>
    </g>
</svg>