<?xml version="1.0" encoding="UTF-8"?>
<svg version="1.1" id="Capa_1" xmlns="http://www.w3.org/2000/svg" xmlns:xlink="http://www.w3.org/1999/xlink" viewBox="0 0 141.73 141.73" enable-background="new 0 0 141.73 141.73" xml:space="preserve">
<path fill-rule="evenodd" clip-rule="evenodd" fill="#CA1517" d="M51.765,76.826c0,7.362-2.387,13.932-9.625,16.223  c-3.358,1.062-9.02,0.221-10.282-5.114c-2.903-12.127,6.964-16.252,19.952-18.386C51.81,69.548,51.765,72.119,51.765,76.826z   M121.729,70.067c-5.684-5.789-17.822-7.021-26.062-8.61c-8.252-1.581-11.729-4.765-11.729-8.194c0-1.591,1.43-7.893,13.207-7.893  c11.785,0,15.059,4.61,21.105,13.785h3.684V41.211h-3.785c0,0-4.404,3.646-4.455,3.595c-3.379-1.593-9.221-4.824-16.756-4.824  c-16.797,0-23.502,10.972-23.502,19.122c0,7.073,2.92,10.553,9.373,14.709c6.447,4.147,19.312,5.687,26.121,7.023  c6.805,1.326,7.371,4.507,7.371,7.523c0,3.031-3.225,8.309-14.086,8.309c-10.85,0-19.713-5.435-24.941-16.859h-5.479v7.945  c0,3.997-0.872,4.354-2.25,4.301c-1.025-0.032-2.511-0.461-2.511-4.354V59.506c0-15.266-11.585-19.286-24.08-19.286  c-10.246,0-22.303,4.552-24.661,13.205c-0.728,2.686,0.303,10.545,7.41,10.545c6.894,0,8.117-2.965,8.708-5.805  c0.557-2.677-0.181-4.525-1.906-7.099c-2.302-3.429,3.692-5.859,8.253-5.859c9.319,0,11.067,6.724,11.067,11.847v7.38  C19.71,69.916,14.177,78.166,14.177,86.984c0,8.807,6.61,14.607,16.998,14.607c10.404,0,14.809-4.107,21.317-10.509  c1.581,4.822,4.967,10.355,13.362,10.355c8.4,0,11.984-5.748,12.245-10.298c1.486,1.994,8.244,10.606,23.713,10.606  c19.609,0,25.096-10.459,25.607-16.763C127.912,78.861,127.24,75.68,121.729,70.067z"/>
</svg>