<?xml version="1.0" encoding="utf-8"?>
<!-- Generator: Adobe Illustrator 23.0.1, SVG Export Plug-In . SVG Version: 6.00 Build 0)  -->
<svg version="1.1" id="Capa_1" xmlns="http://www.w3.org/2000/svg" xmlns:xlink="http://www.w3.org/1999/xlink" x="0px" y="0px"
	 viewBox="0 0 45 45" style="enable-background:new 0 0 45 45;" xml:space="preserve">
<style type="text/css">
	.st0{fill-rule:evenodd;clip-rule:evenodd;fill:#4285F4;}
	.st1{fill:#FFFFFF;}
</style>
<g id="Symbols_1_">
	<path class="st0" d="M22.5,0L22.5,0C34.9,0,45,10.1,45,22.5l0,0C45,34.9,34.9,45,22.5,45l0,0C10.1,45,0,34.9,0,22.5l0,0
		C0,10.1,10.1,0,22.5,0z"/>
	<path class="st1" d="M15.8,29.3c-3.7-3.6-3.7-10,0.2-13.7c2.8-2.7,6.8-3.3,10.3-2l1.4,0.8l1.5,1.1L26.7,18l-0.9-0.6
		c-2.2-1.4-5.2-1.1-7.2,0.9c-2.3,2.3-2.5,6.4,0,8.8c2.3,2.4,6.5,2.4,8.6,0c0.6-0.6,1.2-1.5,1.4-2.4v-0.3H23v-3h8.8l0.2,0.8v2.1
		c-0.2,2-0.9,3.9-2.3,5.3C25.9,33,19.4,33,15.8,29.3z"/>
</g>
</svg>
